<svg xmlns="http://www.w3.org/2000/svg" width="20" height="20" viewBox="0 0 20 20"><path fill="#1E3C5F" fill-rule="evenodd" d="M14,11.1552322 L14,5.5 L7,7.5 L7,15.2999878 C7,15.2999878 6.99923979,15.2998738 6.99774901,15.2996427 C6.99305423,16.449672 5.98201611,17.5525634 4.53840209,17.8858479 C2.90786903,18.2622862 1.34293783,17.5143682 1.04303041,16.2153265 C0.743122996,14.9162848 1.82180821,13.5580399 3.45234127,13.1816017 C3.98965862,13.0575522 4.51985206,13.0556001 5,13.1552322 L5,3.9955775 C5,3.44483697 5.42843442,2.88315425 5.95693506,2.73901771 L15.0430649,0.26098229 C15.568787,0.117603555 16,0.447563354 16,0.999660731 L16,13.2999878 C15.999253,13.2998718 15.9985027,13.2997528 15.9977491,13.2996309 C15.9930612,14.4496644 14.9820211,15.5525622 13.5384021,15.8858479 C11.907869,16.2622862 10.3429378,15.5143682 10.0430304,14.2153265 C9.743123,12.9162848 10.8218082,11.5580399 12.4523413,11.1816017 C12.9896586,11.0575522 13.5198521,11.0556001 14,11.1552322 Z" transform="translate(1 1)"/></svg>
